<svg width="42" height="42" viewBox="0 0 42 42" fill="none" xmlns="http://www.w3.org/2000/svg">
<path d="M21 42C32.598 42 42 32.598 42 21C42 9.40202 32.598 0 21 0C9.40202 0 0 9.40202 0 21C0 32.598 9.40202 42 21 42Z" fill="#09BD30"/>
<path fill-rule="evenodd" clip-rule="evenodd" d="M11.2 15.0284C11.2 15.0284 19.6521 19.8214 21.2926 19.8214C23.0121 19.8214 31.3726 15.12 31.3726 15.12L31.3861 14.28C31.3861 13.3526 30.6334 12.6 29.7035 12.6H12.8817C11.9527 12.6 11.2 13.3526 11.2 14.28V15.0284ZM31.3726 17.64C31.3726 17.64 23.0911 22.1314 21.2926 22.1314C19.6521 22.1314 11.2126 17.64 11.2135 17.64L11.2 27.72C11.2 28.6474 11.9535 29.4 12.8817 29.4H29.7035C30.6334 29.4 31.3861 28.6474 31.3861 27.72L31.3726 17.64Z" fill="white"/>
</svg>
