<?xml version="1.0" encoding="UTF-8"?>
<svg width="42px" height="42px" viewBox="0 0 42 42" version="1.1" xmlns="http://www.w3.org/2000/svg" xmlns:xlink="http://www.w3.org/1999/xlink">
    <title>email-share-logo</title>
    <g id="Page-1" stroke="none" stroke-width="1" fill="none" fill-rule="evenodd">
        <g id="email-share-logo">
            <path d="M21,42 C32.598,42 42,32.598 42,21 C42,9.40202 32.598,0 21,0 C9.40202,0 0,9.40202 0,21 C0,32.598 9.40202,42 21,42 Z" id="Path" fill="#111111" fill-rule="nonzero"></path>
            <path d="M11.2,15.0284 C11.2,15.0284 19.6521,19.8214 21.2926,19.8214 C23.0121,19.8214 31.3726,15.12 31.3726,15.12 L31.3861,14.28 C31.3861,13.3526 30.6334,12.6 29.7035,12.6 L12.8817,12.6 C11.9527,12.6 11.2,13.3526 11.2,14.28 L11.2,15.0284 Z M31.3726,17.64 C31.3726,17.64 23.0911,22.1314 21.2926,22.1314 C19.6521,22.1314 11.2126,17.64 11.2135,17.64 L11.2,27.72 C11.2,28.6474 11.9535,29.4 12.8817,29.4 L29.7035,29.4 C30.6334,29.4 31.3861,28.6474 31.3861,27.72 L31.3726,17.64 Z" id="Shape" fill="#FFFFFF"></path>
        </g>
    </g>
</svg>