<svg width="42" height="42" viewBox="0 0 42 42" fill="none" xmlns="http://www.w3.org/2000/svg">
<path fill-rule="evenodd" clip-rule="evenodd" d="M21 0C9.40202 0 0 9.40202 0 21C0 32.598 9.40202 42 21 42C32.598 42 42 32.598 42 21C42 9.40202 32.598 0 21 0ZM10.0814 17.3931H14.8405V31.6921H10.0814V17.3931ZM15.1539 12.9699C15.123 11.5679 14.1204 10.5 12.4924 10.5C10.8644 10.5 9.8 11.5679 9.8 12.9699C9.8 14.3428 10.8329 15.4414 12.4306 15.4414H12.461C14.1204 15.4414 15.1539 14.3428 15.1539 12.9699ZM26.524 17.0574C29.6557 17.0574 32.0035 19.1015 32.0035 23.4935L32.0033 31.6921H27.2444V24.0421C27.2444 22.1206 26.5557 20.8095 24.8329 20.8095C23.5181 20.8095 22.735 21.6934 22.3911 22.5471C22.2652 22.8531 22.2343 23.2794 22.2343 23.7068V31.6925H17.4747C17.4747 31.6925 17.5374 18.7352 17.4747 17.3935H22.2343V19.4188C22.866 18.4452 23.9972 17.0574 26.524 17.0574Z" fill="#0077B5"/>
</svg>
