<?xml version="1.0" encoding="UTF-8"?>
<svg width="42px" height="42px" viewBox="0 0 42 42" version="1.1" xmlns="http://www.w3.org/2000/svg" xmlns:xlink="http://www.w3.org/1999/xlink">
    <title>linkedin-share-logo</title>
    <g id="Page-1" stroke="none" stroke-width="1" fill="none" fill-rule="evenodd">
        <g id="linkedin-share-logo" fill="#111111">
            <path d="M21,0 C9.40202,0 0,9.40202 0,21 C0,32.598 9.40202,42 21,42 C32.598,42 42,32.598 42,21 C42,9.40202 32.598,0 21,0 Z M10.0814,17.3931 L14.8405,17.3931 L14.8405,31.6921 L10.0814,31.6921 L10.0814,17.3931 Z M15.1539,12.9699 C15.123,11.5679 14.1204,10.5 12.4924,10.5 C10.8644,10.5 9.8,11.5679 9.8,12.9699 C9.8,14.3428 10.8329,15.4414 12.4306,15.4414 L12.461,15.4414 C14.1204,15.4414 15.1539,14.3428 15.1539,12.9699 Z M26.524,17.0574 C29.6557,17.0574 32.0035,19.1015 32.0035,23.4935 L32.0033,31.6921 L27.2444,31.6921 L27.2444,24.0421 C27.2444,22.1206 26.5557,20.8095 24.8329,20.8095 C23.5181,20.8095 22.735,21.6934 22.3911,22.5471 C22.2652,22.8531 22.2343,23.2794 22.2343,23.7068 L22.2343,31.6925 L17.4747,31.6925 C17.4747,31.6925 17.5374,18.7352 17.4747,17.3935 L22.2343,17.3935 L22.2343,19.4188 C22.866,18.4452 23.9972,17.0574 26.524,17.0574 Z" id="Shape"></path>
        </g>
    </g>
</svg>