<?xml version="1.0" encoding="UTF-8"?>
<svg width="37px" height="33px" viewBox="0 0 37 33" version="1.1" xmlns="http://www.w3.org/2000/svg" xmlns:xlink="http://www.w3.org/1999/xlink">
    <title>logo copy</title>
    <g id="Page-1" stroke="none" stroke-width="1" fill="none" fill-rule="evenodd">
        <g id="logo-copy">
            <g id="Group" transform="translate(0.820000, 0.710000)" stroke="#FFFFFF" stroke-linejoin="round">
                <polygon id="Path" points="19.3 0 16.02 0 0 27.79 1.62 30.66 33.65 30.66 35.31 27.81"></polygon>
                <polyline id="Path" points="19.87 12.46 12.08 12.46 19.3 0"></polyline>
                <polyline id="Path" points="0 27.79 14.24 27.79 10.46 21.22"></polyline>
                <polyline id="Path" points="33.65 30.66 26.48 18.27 22.63 25.01"></polyline>
                <polyline id="Path" points="24.97 21.22 28.71 27.77 17.83 27.77 12.24 17.85"></polyline>
                <polyline id="Path" points="14.94 17.88 19.01 25.01 24.76 15.07 19.29 5.73 15.43 12.46"></polyline>
                <line x1="19.01" y1="25.01" x2="27.11" y2="25.01" id="Path"></line>
                <polyline id="Path" points="17.62 22.52 21.67 15.5 17.71 8.65"></polyline>
                <polyline id="Path" points="12.63 25.01 4.9 25.01 10.32 15.5 21.67 15.5"></polyline>
                <polyline id="Path" points="8.22 25.01 12.24 17.88 20.3 17.88"></polyline>
            </g>
            <g id="Group" fill="#FFFFFF" fill-rule="nonzero">
                <path d="M2.44,31.37 L0.82,28.51 L16.84,0.71 L20.12,0.71 C20.12,0.71 36.13,28.52 36.13,28.52 L34.47,31.37 L2.44,31.37 M2.03,32.08 L2.44,32.08 C2.44,32.08 34.46,32.08 34.46,32.08 L34.87,32.08 C34.87,32.08 35.08,31.73 35.08,31.73 L36.74,28.88 L36.95,28.52 L36.74,28.16 L20.74,0.36 L20.53,0 L20.12,0 C20.12,0 16.84,0 16.84,0 L16.43,0 C16.43,0 16.22,0.36 16.22,0.36 L0.2,28.15 L0,28.5 L0.2,28.85 L1.82,31.71 L2.02,32.07 L2.02,32.07 L2.03,32.08 Z" id="Shape"></path>
                <path d="M24.39,25.17 L25.7,22.87 L27.01,25.17 L24.39,25.17 M27.95,25.72 L25.7,21.77 L23.44,25.72 L27.95,25.72 C27.95,25.72 27.95,25.72 27.95,25.72 L27.95,25.72 Z" id="Shape"></path>
                <path d="M18.43,22.15 L16.71,19.14 L20.17,19.14 C20.17,19.14 18.43,22.15 18.43,22.15 M18.43,23.25 L21.12,18.59 L15.77,18.59 C15.77,18.59 18.44,23.25 18.44,23.25 L18.44,23.25 L18.43,23.25 Z" id="Shape"></path>
                <path d="M9.97,25.17 L11.23,22.94 L12.51,25.17 L9.97,25.17 M9.03,25.72 L13.45,25.72 C13.45,25.72 11.22,21.83 11.22,21.83 L9.03,25.72 L9.03,25.72 Z" id="Shape"></path>
                <path d="M17.19,12.63 L18.48,10.37 L19.79,12.63 L17.19,12.63 M16.25,13.18 L20.74,13.18 C20.74,13.18 18.48,9.28 18.48,9.28 L16.25,13.18 L16.25,13.18 Z" id="Shape"></path>
            </g>
        </g>
    </g>
</svg>