<?xml version="1.0" encoding="UTF-8"?>
<svg width="126px" height="29px" viewBox="0 0 126 29" version="1.1" xmlns="http://www.w3.org/2000/svg" xmlns:xlink="http://www.w3.org/1999/xlink">
    <title>logo-full</title>
    <g id="logo-full" stroke="none" stroke-width="1" fill="none" fill-rule="evenodd">
        <g id="_1" transform="translate(2.000000, 2.000000)">
            <g id="Group" transform="translate(0.547304, 0.469362)" stroke="#222223" stroke-linejoin="round">
                <polygon id="Path" points="12.8816612 0 10.6924462 0 0 18.3712179 1.08125861 20.2684973 22.4594766 20.2684973 23.567433 18.3844394"></polygon>
                <polyline id="Path" points="13.262104 8.23696923 8.06271851 8.23696923 12.8816612 0"></polyline>
                <polyline id="Path" points="0 18.3712179 9.50439665 18.3712179 6.9814599 14.0279685"></polyline>
                <polyline id="Path" points="22.4594766 20.2684973 17.6739061 12.0778032 15.1042483 16.533435"></polyline>
                <polyline id="Path" points="16.6660663 14.0279685 19.1623053 18.3579964 11.9005191 18.3579964 8.16950948 11.8001526"></polyline>
                <polyline id="Path" points="9.97160716 11.8199847 12.6881026 16.533435 16.5259032 9.96236969 12.8749868 3.78794813 10.2986545 8.23696923"></polyline>
                <line x1="12.6881026" y1="16.533435" x2="18.0943956" y2="16.533435" id="Path"></line>
                <polyline id="Path" points="11.760356 14.8873633 14.4635025 10.2466311 11.8204259 5.71828121"></polyline>
                <polyline id="Path" points="8.42981248 16.533435 3.27047357 16.533435 6.8880178 10.2466311 14.4635025 10.2466311"></polyline>
                <polyline id="Path" points="5.48638627 16.533435 8.16950948 11.8199847 13.5491048 11.8199847"></polyline>
            </g>
            <g id="Group" fill="#222223" fill-rule="nonzero">
                <path d="M1.62856235,20.7378591 L0.54730374,18.8471904 L11.23975,0.46936181 L13.4289649,0.46936181 C13.4289649,0.46936181 24.1147367,18.8538012 24.1147367,18.8538012 L23.0067804,20.7378591 L1.62856235,20.7378591 M1.35491048,21.207221 L1.62856235,21.207221 C1.62856235,21.207221 23.0001059,21.207221 23.0001059,21.207221 L23.2737578,21.207221 C23.2737578,21.207221 23.413921,20.9758454 23.413921,20.9758454 L24.5218773,19.0917874 L24.6620405,18.8538012 L24.5218773,18.6158149 L13.84278,0.23798627 L13.7026168,0 L13.4289649,0 C13.4289649,0 11.23975,0 11.23975,0 L10.9660981,0 C10.9660981,0 10.825935,0.23798627 10.825935,0.23798627 L0.133488717,18.6092042 L0,18.8405797 L0.133488717,19.0719553 L1.21474732,20.962624 L1.34823604,21.2006102 L1.34823604,21.2006102 L1.35491048,21.207221 Z" id="Shape"></path>
                <path d="M16.278949,16.6392067 L17.1533001,15.1187389 L18.0276512,16.6392067 L16.278949,16.6392067 M18.6550482,17.0027968 L17.1533001,14.3915586 L15.6448776,17.0027968 L18.6550482,17.0027968 C18.6550482,17.0027968 18.6550482,17.0027968 18.6550482,17.0027968 L18.6550482,17.0027968 Z" id="Shape"></path>
                <path d="M12.3009853,14.6427663 L11.1529823,12.6529367 L13.4623371,12.6529367 C13.4623371,12.6529367 12.3009853,14.6427663 12.3009853,14.6427663 M12.3009853,15.3699466 L14.0964085,12.2893466 L10.5255853,12.2893466 C10.5255853,12.2893466 12.3076597,15.3699466 12.3076597,15.3699466 L12.3076597,15.3699466 L12.3009853,15.3699466 Z" id="Shape"></path>
                <path d="M6.65441254,16.6392067 L7.49539146,15.165014 L8.34971925,16.6392067 L6.65441254,16.6392067 M6.02701557,17.0027968 L8.97711622,17.0027968 C8.97711622,17.0027968 7.48871703,14.431223 7.48871703,14.431223 L6.02701557,17.0027968 L6.02701557,17.0027968 Z" id="Shape"></path>
                <path d="M11.4733552,8.34935164 L12.3343575,6.85532672 L13.2087085,8.34935164 L11.4733552,8.34935164 M10.8459583,8.71294177 L13.84278,8.71294177 C13.84278,8.71294177 12.3343575,6.13475718 12.3343575,6.13475718 L10.8459583,8.71294177 L10.8459583,8.71294177 Z" id="Shape"></path>
            </g>
        </g>
        <g id="Microapp" transform="translate(31.722000, 7.334000)" fill="#000000" fill-rule="nonzero">
            <polygon id="Path" points="11.067 5.145 10.983 5.145 9.849 7.476 6.846 13.02 3.843 7.476 2.709 5.145 2.625 5.145 2.625 15.666 0 15.666 0 1.008 3.129 1.008 6.888 8.169 6.972 8.169 10.689 1.008 13.692 1.008 13.692 15.666 11.067 15.666"></polygon>
            <path d="M18.872,3.108 C18.312,3.108 17.9095,2.982 17.6645,2.73 C17.4195,2.478 17.297,2.156 17.297,1.764 L17.297,1.344 C17.297,0.952 17.4195,0.63 17.6645,0.378 C17.9095,0.126 18.312,0 18.872,0 C19.418,0 19.817,0.126 20.069,0.378 C20.321,0.63 20.447,0.952 20.447,1.344 L20.447,1.764 C20.447,2.156 20.321,2.478 20.069,2.73 C19.817,2.982 19.418,3.108 18.872,3.108 Z M17.528,4.704 L20.216,4.704 L20.216,15.666 L17.528,15.666 L17.528,4.704 Z" id="Shape"></path>
            <path d="M28.21,15.918 C27.398,15.918 26.677,15.785 26.047,15.519 C25.417,15.253 24.8885,14.868 24.4615,14.364 C24.0345,13.86 23.709,13.2545 23.485,12.5475 C23.261,11.8405 23.149,11.046 23.149,10.164 C23.149,9.282 23.261,8.491 23.485,7.791 C23.709,7.091 24.0345,6.4925 24.4615,5.9955 C24.8885,5.4985 25.417,5.117 26.047,4.851 C26.677,4.585 27.398,4.452 28.21,4.452 C29.316,4.452 30.2295,4.697 30.9505,5.187 C31.6715,5.677 32.193,6.356 32.515,7.224 L30.31,8.211 C30.184,7.749 29.9495,7.3675 29.6065,7.0665 C29.2635,6.7655 28.798,6.615 28.21,6.615 C27.454,6.615 26.8905,6.853 26.5195,7.329 C26.1485,7.805 25.963,8.428 25.963,9.198 L25.963,11.193 C25.963,11.963 26.1485,12.5825 26.5195,13.0515 C26.8905,13.5205 27.454,13.755 28.21,13.755 C28.854,13.755 29.351,13.5905 29.701,13.2615 C30.051,12.9325 30.324,12.523 30.52,12.033 L32.578,13.02 C32.214,13.986 31.661,14.7105 30.919,15.1935 C30.177,15.6765 29.274,15.918 28.21,15.918 Z" id="Path"></path>
            <path d="M35.217,15.666 L35.217,4.704 L37.905,4.704 L37.905,6.972 L38.01,6.972 C38.08,6.678 38.1885,6.3945 38.3355,6.1215 C38.4825,5.8485 38.675,5.607 38.913,5.397 C39.151,5.187 39.4345,5.019 39.7635,4.893 C40.0925,4.767 40.474,4.704 40.908,4.704 L41.496,4.704 L41.496,7.245 L40.656,7.245 C39.746,7.245 39.06,7.378 38.598,7.644 C38.136,7.91 37.905,8.344 37.905,8.946 L37.905,15.666 L35.217,15.666 Z" id="Path"></path>
            <path d="M48.272,15.918 C47.488,15.918 46.7845,15.785 46.1615,15.519 C45.5385,15.253 45.0065,14.868 44.5655,14.364 C44.1245,13.86 43.785,13.2545 43.547,12.5475 C43.309,11.8405 43.19,11.046 43.19,10.164 C43.19,9.282 43.309,8.491 43.547,7.791 C43.785,7.091 44.1245,6.4925 44.5655,5.9955 C45.0065,5.4985 45.5385,5.117 46.1615,4.851 C46.7845,4.585 47.488,4.452 48.272,4.452 C49.056,4.452 49.763,4.585 50.393,4.851 C51.023,5.117 51.5585,5.4985 51.9995,5.9955 C52.4405,6.4925 52.78,7.091 53.018,7.791 C53.256,8.491 53.375,9.282 53.375,10.164 C53.375,11.046 53.256,11.8405 53.018,12.5475 C52.78,13.2545 52.4405,13.86 51.9995,14.364 C51.5585,14.868 51.023,15.253 50.393,15.519 C49.763,15.785 49.056,15.918 48.272,15.918 Z M48.272,13.755 C48.986,13.755 49.546,13.538 49.952,13.104 C50.358,12.67 50.561,12.033 50.561,11.193 L50.561,9.156 C50.561,8.33 50.358,7.7 49.952,7.266 C49.546,6.832 48.986,6.615 48.272,6.615 C47.572,6.615 47.019,6.832 46.613,7.266 C46.207,7.7 46.004,8.33 46.004,9.156 L46.004,11.193 C46.004,12.033 46.207,12.67 46.613,13.104 C47.019,13.538 47.572,13.755 48.272,13.755 Z" id="Shape"></path>
            <path d="M64.372,15.666 C63.784,15.666 63.3185,15.4945 62.9755,15.1515 C62.6325,14.8085 62.419,14.35 62.335,13.776 L62.209,13.776 C62.027,14.49 61.656,15.0255 61.096,15.3825 C60.536,15.7395 59.843,15.918 59.017,15.918 C57.897,15.918 57.036,15.624 56.434,15.036 C55.832,14.448 55.531,13.664 55.531,12.684 C55.531,11.55 55.937,10.7065 56.749,10.1535 C57.561,9.6005 58.716,9.324 60.214,9.324 L62.083,9.324 L62.083,8.526 C62.083,7.91 61.922,7.434 61.6,7.098 C61.278,6.762 60.76,6.594 60.046,6.594 C59.416,6.594 58.9085,6.7305 58.5235,7.0035 C58.1385,7.2765 57.813,7.602 57.547,7.98 L55.951,6.552 C56.357,5.922 56.896,5.4145 57.568,5.0295 C58.24,4.6445 59.129,4.452 60.235,4.452 C61.719,4.452 62.846,4.788 63.616,5.46 C64.386,6.132 64.771,7.098 64.771,8.358 L64.771,13.524 L65.863,13.524 L65.863,15.666 L64.372,15.666 Z M59.92,13.965 C60.522,13.965 61.033,13.832 61.453,13.566 C61.873,13.3 62.083,12.908 62.083,12.39 L62.083,10.941 L60.361,10.941 C58.961,10.941 58.261,11.389 58.261,12.285 L58.261,12.642 C58.261,13.09 58.4045,13.4225 58.6915,13.6395 C58.9785,13.8565 59.388,13.965 59.92,13.965 Z" id="Shape"></path>
            <path d="M68.607,4.704 L71.295,4.704 L71.295,6.51 L71.379,6.51 C71.575,5.88 71.946,5.3795 72.492,5.0085 C73.038,4.6375 73.675,4.452 74.403,4.452 C75.803,4.452 76.8705,4.9455 77.6055,5.9325 C78.3405,6.9195 78.708,8.33 78.708,10.164 C78.708,12.012 78.3405,13.433 77.6055,14.427 C76.8705,15.421 75.803,15.918 74.403,15.918 C73.675,15.918 73.0415,15.729 72.5025,15.351 C71.9635,14.973 71.589,14.469 71.379,13.839 L71.295,13.839 L71.295,19.866 L68.607,19.866 L68.607,4.704 Z M73.542,13.692 C74.242,13.692 74.809,13.461 75.243,12.999 C75.677,12.537 75.894,11.914 75.894,11.13 L75.894,9.24 C75.894,8.456 75.677,7.8295 75.243,7.3605 C74.809,6.8915 74.242,6.657 73.542,6.657 C72.898,6.657 72.3625,6.818 71.9355,7.14 C71.5085,7.462 71.295,7.889 71.295,8.421 L71.295,11.907 C71.295,12.481 71.5085,12.922 71.9355,13.23 C72.3625,13.538 72.898,13.692 73.542,13.692 Z" id="Shape"></path>
            <path d="M81.767,4.704 L84.455,4.704 L84.455,6.51 L84.539,6.51 C84.735,5.88 85.106,5.3795 85.652,5.0085 C86.198,4.6375 86.835,4.452 87.563,4.452 C88.963,4.452 90.0305,4.9455 90.7655,5.9325 C91.5005,6.9195 91.868,8.33 91.868,10.164 C91.868,12.012 91.5005,13.433 90.7655,14.427 C90.0305,15.421 88.963,15.918 87.563,15.918 C86.835,15.918 86.2015,15.729 85.6625,15.351 C85.1235,14.973 84.749,14.469 84.539,13.839 L84.455,13.839 L84.455,19.866 L81.767,19.866 L81.767,4.704 Z M86.702,13.692 C87.402,13.692 87.969,13.461 88.403,12.999 C88.837,12.537 89.054,11.914 89.054,11.13 L89.054,9.24 C89.054,8.456 88.837,7.8295 88.403,7.3605 C87.969,6.8915 87.402,6.657 86.702,6.657 C86.058,6.657 85.5225,6.818 85.0955,7.14 C84.6685,7.462 84.455,7.889 84.455,8.421 L84.455,11.907 C84.455,12.481 84.6685,12.922 85.0955,13.23 C85.5225,13.538 86.058,13.692 86.702,13.692 Z" id="Shape"></path>
        </g>
    </g>
</svg>