<?xml version="1.0" encoding="UTF-8"?><svg id="Layer_2" xmlns="http://www.w3.org/2000/svg" viewBox="0 0 36.95 32.08"><defs><style>.cls-1{fill:none;stroke:#222223;stroke-linejoin:round;}.cls-2{fill:#222223;}</style></defs><g id="Layer_1-2"><g id="_1"><g><polygon class="cls-1" points="20.12 .71 16.84 .71 .82 28.5 2.44 31.37 34.47 31.37 36.13 28.52 20.12 .71"/><polyline class="cls-1" points="20.69 13.17 12.9 13.17 20.12 .71"/><polyline class="cls-1" points=".82 28.5 15.06 28.5 11.28 21.93"/><polyline class="cls-1" points="34.47 31.37 27.3 18.98 23.45 25.72"/><polyline class="cls-1" points="25.79 21.93 29.53 28.48 18.65 28.48 13.06 18.56"/><polyline class="cls-1" points="15.76 18.59 19.83 25.72 25.58 15.78 20.11 6.44 16.25 13.17"/><line class="cls-1" x1="19.83" y1="25.72" x2="27.93" y2="25.72"/><polyline class="cls-1" points="18.44 23.23 22.49 16.21 18.53 9.36"/><polyline class="cls-1" points="13.45 25.72 5.72 25.72 11.14 16.21 22.49 16.21"/><polyline class="cls-1" points="9.04 25.72 13.06 18.59 21.12 18.59"/></g><g><path class="cls-2" d="m2.44,31.37l-1.62-2.86L16.84.71h3.28s16.01,27.81,16.01,27.81l-1.66,2.85H2.44m-.41.71h.41s32.02,0,32.02,0h.41s.21-.35.21-.35l1.66-2.85.21-.36-.21-.36L20.74.36l-.21-.36h-.41s-3.28,0-3.28,0h-.41s-.21.36-.21.36L.2,28.15l-.2.35.2.35,1.62,2.86.2.36h0Z"/><path class="cls-2" d="m24.39,25.17l1.31-2.3,1.31,2.3h-2.62m3.56.55l-2.25-3.95-2.26,3.95h4.51s0,0,0,0h0Zm-2.25-3.95h0s0,0,0,0h0Z"/><path class="cls-2" d="m18.43,22.15l-1.72-3.01h3.46s-1.74,3.01-1.74,3.01m0,1.1l2.69-4.66h-5.35s2.67,4.66,2.67,4.66h0Z"/><path class="cls-2" d="m9.97,25.17l1.26-2.23,1.28,2.23h-2.54m-.94.55h4.42s-2.23-3.89-2.23-3.89l-2.19,3.89h0Z"/><path class="cls-2" d="m17.19,12.63l1.29-2.26,1.31,2.26h-2.6m-.94.55h4.49s-2.26-3.9-2.26-3.9l-2.23,3.9h0Z"/></g></g></g></svg>