<svg width="48" height="48" viewBox="0 0 48 48" fill="none" xmlns="http://www.w3.org/2000/svg">
<rect opacity="0.15" x="0.75" y="0.75" width="46.5" height="46.5" rx="23.25" stroke="#EAEAEA" stroke-width="1.5"/>
<path d="M27.3816 16H24.6851V26.8985C24.6851 28.1971 23.648 29.2638 22.3574 29.2638C21.0668 29.2638 20.0297 28.1971 20.0297 26.8985C20.0297 25.6232 21.0438 24.5797 22.2883 24.5333V21.7971C19.5457 21.8435 17.3333 24.0928 17.3333 26.8985C17.3333 29.7276 19.5918 32 22.3805 32C25.1691 32 27.4277 29.7044 27.4277 26.8985V21.3101C28.4417 22.0522 29.6862 22.4928 30.9999 22.516V19.7797C28.9718 19.7101 27.3816 18.0406 27.3816 16Z" fill="white"/>
</svg>
