<svg width="48" height="48" viewBox="0 0 48 48" fill="none" xmlns="http://www.w3.org/2000/svg">
<rect opacity="0.15" x="0.75" y="0.75" width="46.5" height="46.5" rx="23.25" stroke="#EAEAEA" stroke-width="1.5"/>
<path fill-rule="evenodd" clip-rule="evenodd" d="M23.7689 20.8323C23.7868 21.1347 23.5262 21.3834 23.2256 21.3461C21.1215 21.0713 19.2833 20.1391 17.7226 18.5736L17.3845 18.2294C17.1893 18.0307 16.8533 18.107 16.763 18.3705C16.3468 19.6492 16.6127 20.9996 17.4798 21.9078C17.9422 22.4097 17.8382 22.4814 17.0405 22.1827C16.6845 22.06 16.4764 22.2409 16.5639 22.6071C16.6502 22.9678 16.7907 23.4125 16.9133 23.6526C17.2139 24.2501 17.8266 24.8357 18.4972 25.1823C18.6397 25.2514 18.5925 25.4655 18.4341 25.4683L18.3931 25.4691C17.7457 25.4691 17.7226 25.481 17.7919 25.732C18.0232 26.5088 18.9365 27.3334 19.9538 27.6919L19.9796 27.7009C20.2561 27.7977 20.2961 28.1722 20.0463 28.3253C19.1214 28.875 18.0347 29.1857 16.948 29.2096C16.4278 29.2215 16 29.2694 16 29.3052C16 29.4247 17.4104 30.0939 18.2313 30.3569C20.6937 31.1336 23.6186 30.799 25.8152 29.4725C27.3759 28.5284 28.9366 26.6522 29.665 24.8357C30.058 23.8677 30.4511 22.099 30.4511 21.2505C30.4511 20.7008 30.4858 20.6291 31.1332 19.9718C31.5147 19.5894 31.8731 19.1711 31.9425 19.0516C32.0581 18.8246 32.0465 18.8246 31.4569 19.0277C30.4742 19.3863 30.3355 19.3384 30.8211 18.8007C31.1794 18.4183 31.6072 17.7251 31.6072 17.522C31.6072 17.4861 31.4338 17.5459 31.2372 17.6534C31.0291 17.7729 30.5667 17.9522 30.2199 18.0597C29.8267 18.1877 29.3962 18.1241 29.0568 17.8878L29.0291 17.8685C28.717 17.6534 28.2777 17.4144 28.0464 17.3427C27.4568 17.1754 26.5551 17.1993 26.0233 17.3905C24.5782 17.9283 23.6649 19.3145 23.7689 20.8323Z" fill="#EAEAEA"/>
</svg>
