<?xml version="1.0" encoding="UTF-8"?>
<svg width="42px" height="42px" viewBox="0 0 42 42" version="1.1" xmlns="http://www.w3.org/2000/svg" xmlns:xlink="http://www.w3.org/1999/xlink">
    <title>twitter-share-logo</title>
    <g id="Page-1" stroke="none" stroke-width="1" fill="none" fill-rule="evenodd">
        <g id="twitter-share-logo" fill-rule="nonzero">
            <path d="M0,21 C0,9.40202 9.40202,0 21,0 C32.598,0 42,9.40202 42,21 C42,32.598 32.598,42 21,42 C9.40202,42 0,32.598 0,21 Z" id="Path" fill="#111111"></path>
            <path d="M20.3711,17.0691 L20.4151,17.7957 L19.6807,17.7067 C17.0073,17.3657 14.6717,16.209 12.6887,14.2663 L11.7192,13.3024 L11.4695,14.0142 C10.9407,15.6009 11.2785,17.2767 12.3802,18.4037 C12.9678,19.0266 12.8356,19.1155 11.822,18.7448 C11.4695,18.6262 11.161,18.5372 11.1316,18.5817 C11.0288,18.6855 11.3813,20.035 11.6604,20.5688 C12.0424,21.3103 12.8209,22.037 13.6728,22.467 L14.3926,22.8081 L13.5406,22.8229 C12.718,22.8229 12.6887,22.8378 12.7768,23.1492 C13.0706,24.1131 14.231,25.1363 15.5237,25.5812 L16.4344,25.8926 L15.6412,26.3672 C14.466,27.0493 13.0853,27.4349 11.7045,27.4646 C11.0435,27.4794 10.5,27.5387 10.5,27.5832 C10.5,27.7315 12.2921,28.562 13.335,28.8882 C16.4638,29.8521 20.1801,29.4369 22.971,27.7908 C24.954,26.6193 26.9371,24.2911 27.8625,22.037 C28.3619,20.8358 28.8613,18.641 28.8613,17.5881 C28.8613,16.9059 28.9054,16.817 29.728,16.0013 C30.2127,15.5268 30.6681,15.0078 30.7562,14.8595 C30.9031,14.5777 30.8884,14.5777 30.1393,14.8298 C28.8907,15.2747 28.7144,15.2154 29.3314,14.548 C29.7867,14.0735 30.3302,13.2134 30.3302,12.9613 C30.3302,12.9168 30.1099,12.9909 29.8602,13.1244 C29.5958,13.2727 29.0082,13.4952 28.5676,13.6286 L27.7743,13.8807 L27.0546,13.3913 C26.658,13.1244 26.0998,12.8278 25.806,12.7388 C25.0569,12.5312 23.9111,12.5609 23.2354,12.7982 C21.3993,13.4655 20.2389,15.1857 20.3711,17.0691 Z" id="Path" fill="#FFFFFF"></path>
        </g>
    </g>
</svg>