<svg width="42" height="42" viewBox="0 0 42 42" fill="none" xmlns="http://www.w3.org/2000/svg">
<path d="M0 21C0 9.40202 9.40202 0 21 0C32.598 0 42 9.40202 42 21C42 32.598 32.598 42 21 42C9.40202 42 0 32.598 0 21Z" fill="#55ACEE"/>
<path d="M20.3711 17.0691L20.4151 17.7957L19.6807 17.7067C17.0073 17.3657 14.6717 16.209 12.6887 14.2663L11.7192 13.3024L11.4695 14.0142C10.9407 15.6009 11.2785 17.2767 12.3802 18.4037C12.9678 19.0266 12.8356 19.1155 11.822 18.7448C11.4695 18.6262 11.161 18.5372 11.1316 18.5817C11.0288 18.6855 11.3813 20.035 11.6604 20.5688C12.0424 21.3103 12.8209 22.037 13.6728 22.467L14.3926 22.8081L13.5406 22.8229C12.718 22.8229 12.6887 22.8378 12.7768 23.1492C13.0706 24.1131 14.231 25.1363 15.5237 25.5812L16.4344 25.8926L15.6412 26.3672C14.466 27.0493 13.0853 27.4349 11.7045 27.4646C11.0435 27.4794 10.5 27.5387 10.5 27.5832C10.5 27.7315 12.2921 28.562 13.335 28.8882C16.4638 29.8521 20.1801 29.4369 22.971 27.7908C24.954 26.6193 26.9371 24.2911 27.8625 22.037C28.3619 20.8358 28.8613 18.641 28.8613 17.5881C28.8613 16.9059 28.9054 16.817 29.728 16.0013C30.2127 15.5268 30.6681 15.0078 30.7562 14.8595C30.9031 14.5777 30.8884 14.5777 30.1393 14.8298C28.8907 15.2747 28.7144 15.2154 29.3314 14.548C29.7867 14.0735 30.3302 13.2134 30.3302 12.9613C30.3302 12.9168 30.1099 12.9909 29.8602 13.1244C29.5958 13.2727 29.0082 13.4952 28.5676 13.6286L27.7743 13.8807L27.0546 13.3913C26.658 13.1244 26.0998 12.8278 25.806 12.7388C25.0569 12.5312 23.9111 12.5609 23.2354 12.7982C21.3993 13.4655 20.2389 15.1857 20.3711 17.0691Z" fill="white"/>
</svg>
